<svg xmlns="http://www.w3.org/2000/svg" viewBox="0 0 32 32" id="carbon-dioxide">
  <path d="M11,12a1.5,1.5,0,0,1,1.5,1.5.5.5,0,0,0,1,0,2.5,2.5,0,0,0-5,0v3a2.5,2.5,0,0,0,5,0,.5.5,0,0,0-1,0,1.5,1.5,0,0,1-3,0v-3A1.5,1.5,0,0,1,11,12Zm6-1a2.5,2.5,0,0,0-2.5,2.5v3a2.5,2.5,0,0,0,5,0v-3A2.5,2.5,0,0,0,17,11Zm1.5,5.5a1.5,1.5,0,0,1-3,0v-3a1.5,1.5,0,0,1,3,0ZM29.5,27A2.5,2.5,0,1,0,32,29.5,2.5,2.5,0,0,0,29.5,27Zm0,4A1.5,1.5,0,1,1,31,29.5,1.5,1.5,0,0,1,29.5,31Zm-.145-8.978a7.993,7.993,0,0,0-3.4-13.692A7.994,7.994,0,0,0,10.531,6.224a9,9,0,0,0-4.388,17.4A7.493,7.493,0,0,0,17.5,26.587a7.491,7.491,0,0,0,11.855-4.565ZM22,27.09a6.5,6.5,0,0,1-4.179-1.524.482.482,0,0,0-.079-.045A4.5,4.5,0,0,1,16.3,23.577a.5.5,0,1,0-.934.359,5.521,5.521,0,0,0,1.315,1.981,6.447,6.447,0,0,1-9.685-2.858,4.5,4.5,0,0,1,.585-2.274.5.5,0,1,0-.869-.5,5.51,5.51,0,0,0-.7,2.192A7.982,7.982,0,0,1,10.682,7.275l0,0a4.5,4.5,0,0,1,2.036,1.434.5.5,0,1,0,.779-.627,5.5,5.5,0,0,0-2-1.543A6.976,6.976,0,0,1,24.93,8.2a5.479,5.479,0,0,0-2.358.462.5.5,0,0,0,.2.957.492.492,0,0,0,.2-.043,4.477,4.477,0,0,1,2.458-.339,6.977,6.977,0,0,1,3.848,11.417,5.469,5.469,0,0,0-.589-1.711.5.5,0,1,0-.875.483A4.509,4.509,0,0,1,28.37,21.8,6.467,6.467,0,0,1,22,27.09ZM23,20H22l1.2-1.6a1.5,1.5,0,1,0-2.7-.9.5.5,0,0,0,1,0A.5.5,0,0,1,22,17a.5.5,0,0,1,.4.8l-1.8,2.4a.5.5,0,0,0,.4.8h2a.5.5,0,1,0,0-1Z"></path>
</svg>
