<svg xmlns="http://www.w3.org/2000/svg" viewBox="0 0 100 100" id="greenhouse">
  <path d="M36.28146,43.27608l.02307.0033c.04657.00427.09327.00678.1399.0108Z"></path>
  <polygon points="14.66 44.871 14.657 44.872 14.656 44.873 14.66 44.871"></polygon>
  <path d="M89.19907,45.28658c-1.36078-1.0686-2.75171-2.102-4.143-3.1322-1.54541-1.146-3.10559-2.27972-4.68567-3.38086-2.03192-1.41052-4.08813-2.77869-6.10846-4.20526-2.05621-1.44672-4.07355-2.94824-6.13708-4.38879q-3.066-2.14306-6.192-4.18854c-2.181-1.42676-4.34973-2.87653-6.56665-4.24487l.13641.08355q-.26311-.16113-.52612-.32257l.03681.02045c-.06611-.0409-.13312-.08222-.20038-.12287-.71436-.44146-1.43518-.87036-2.14942-1.31213.0213.01331.04242.02661.0625.03992a17.92974,17.92974,0,0,1-1.6532-1.12,2.24284,2.24284,0,0,0-.62518-.44519,1.20522,1.20522,0,0,0-1.57074.79511,1.18415,1.18415,0,0,0-.17755.05938c-.47357.25647-.925.573-1.37768.86542-.634.41016-1.27155.82331-1.90241,1.23718.04358-.03051.087-.05749.13074-.08789-.794.51935-1.58124,1.04261-2.37207,1.56562q-6.193,4.11043-12.40381,8.18823c.02038-.0116.04022-.0235.05987-.03565q-.29489.19336-.5896.38642c.04383-.0304.08722-.05737.13074-.08783q-2.04374,1.33071-4.06946,2.68719-3.14712,2.10719-6.29052,4.21125c-2.0976,1.398-4.16175,2.84326-6.26239,4.23761.04345-.027.08715-.05744.13043-.08448l-.11945.07868.04322-.02716-.08368.05377-.04663.03076.01983-.01349q-.15756.10118-.31494.20374l.03412-.02143c-.02838.01856-.05713.03687-.08582.0553l-.04461.02912.015-.01008c-.46991.30176-.9472.59217-1.42718.87928-.249.14947-.50067.29181-.75257.43756a1.71638,1.71638,0,0,0-.5639.42975,1.22259,1.22259,0,0,0-.175,1.19189,1.20366,1.20366,0,0,0,.77338.70307,1.14121,1.14121,0,0,0,.21545.0401,1.519,1.519,0,0,0,.87152-.2331c.27289-.15075.54639-.30835.81324-.46643.54-.32294,1.07464-.65253,1.60174-.99377l.02362-.0152.1059-.06854-.01056.00708c.13275-.08594.26453-.17243.39831-.26075-.04327.027-.087.05744-.13043.08448.85889-.55817,1.69892-1.13849,2.54566-1.71472.85553-.58185,1.72174-1.14777,2.579-1.72687.0047,1.55853-.00067,4.09949.02191,4.9837,0-.00714-.00012-.01434-.00006-.0216l.00091.05505c.00092.03418.00159.0683.00269.10248l-.002-.05347q.00459.3176.01648.636c-.00207-.05493-.00451-.10645-.00689-.158.00451.10644.009.21283.01.319l-.00086-.02582c.00281.11462.00592.22882.01117.34125l-.00726-.15448c.035,1.12488.0733,2.24689.10846,3.37146-.00031-.01526-.00025-.03052.00006-.04523.00616.24329.01221.48993.01843.73328.00025-.01319.00037-.02655.00018-.04016l.00239.08819.00024.03772.00012-.02038c.06049,2.287.10272,4.57244.16724,6.85662-.00055-.0335-.00055-.06738-.00189-.10284.00567.23511.01385.468.02044.70233-.00006-.01111,0-.02234.00012-.03381q.00421.19034.00812.38025l.00012-.019c.00281.10907.00592.21752.01081.32775-.00208-.05493-.00446-.10638-.00659-.16137.0783,2.845.16,5.69012.17663,8.5365q.02079,3.60754-.01672,7.21685c-.01258,1.09308.01538,2.18976.00958,3.28345-.00116.18341.004.36658.00647.54956-.23529-.00079-.47046-.00677-.70569-.00616-1.24859.00464-2.50091.05346-3.74518.01056.0373.00323.07489.0047.11359.00573l-.00464.00031a1.21043,1.21043,0,0,0-.28277,2.40393l.03662.00256c1.43994.07343,2.88781.0177,4.32666.02606.29882.00074.59765.007.89654.00947a1.17082,1.17082,0,0,0,.52271.192,1.10018,1.10018,0,0,0,.71283-.179q1.06769.01364,2.13488.02252c2.641.02368,5.28278-.038,7.923-.08283,2.52-.038,5.04089-.00769,7.55682-.03924,5.18958-.06665,10.37757-.11621,15.564-.3028,2.51446-.09326,5.02783-.214,7.546-.23175q3.86974-.02874,7.73071-.072c2.47809-.02808,4.95819-.07989,7.43658-.07367,1.17585.00617,2.3509.0191,3.52277.03168,1.12012.01507,2.24152.05755,3.361.04175a1.22882,1.22882,0,0,0,.08936-2.45081c-1.30615-.079-2.61676-.06946-3.92487-.087-.70032-.00781-1.4-.00763-2.1-.01251-.04175-.97-.09607-1.93994-.12384-2.91308-.00068.02441-.00037.04815.00012.07171-.00336-.10608-.00556-.21063-.01-.31524.00238.05151.00445.10644.007.15789-.0434-1.71-.07636-3.41919-.04108-5.12921.04779-2.56384.11932-5.12561.19446-7.69043.07232-2.53094.069-5.05816.10412-7.59234.03162-2.45581.121-4.91.22107-7.36664.05426-1.25708.09827-2.515.08753-3.77088-.001-.61889-.01911-1.23938-.05463-1.85461-.00635-.09753-.01776-.195-.0246-.293.93171.65888,1.854,1.32764,2.77686,2.00208,1.75287,1.27691,3.46692,2.60852,5.22357,3.88238a1.17488,1.17488,0,0,0,.58728.21576,1.20937,1.20937,0,0,0,.8216-2.18976ZM62.29086,78.2192c-2.53613.02643-5.06494.16632-7.59576.25128-2.55145.08667-5.10663.13538-7.65766.17761-2.57855.04322-5.15777.09327-7.7351.123-.30426.0036-.60846.00275-.91272.00507a1.28786,1.28786,0,0,0,.00531-.52546c-.23883-1.1491-.50592-2.29034-.77619-3.43194-.19909-.83-.39843-1.65686-.59741-2.48676.52948.02106,1.05951.04187,1.58881.05518,1.52191.03613,3.04773.06579,4.5686.07446l-.15362-.003c.11981.00012.23913.0036.3587.00372l-.15363-.00311c.0813.00061.16278.00238.24475.00287l-.01928-.00037.06909.00067c.02917-.00012.05859-.00018.0882-.00067l-.0224.00055.06848-.00122c.05529.00269.11145.00318.16894.00336l-.04742.00037c.13067.00024.26227.00183.39337.00256l-.01782.00043c.02655-.00031.05285-.00037.07934-.00031H44.237l.09741.00037c.02411-.00025.04877-.00012.07355.00006.02106,0,.042.00006.06286-.00031l-.02276.00074.00628.00012-.0122.00012c-.0141.00024-.02844.00061-.04254.00055,2.22564.01953,4.4544.0813,6.68371.096l-.03192.001c2.495.01447,4.98779-.02606,7.48273-.05255,2.1123-.02063,4.2221-.09021,6.33514-.08758l-.00506.00012c.37.00287.74169.01587,1.113.02685l-.0061.01361.00635-.01361.00311.00013c-.08136.18383-.16174.36755-.24426.554l.06414-.14831c-.5072,1.15625-1.04766,2.30279-1.53527,3.471-.25892.61939-.52167,1.24207-.74109,1.8772Q62.90742,78.21325,62.29086,78.2192Zm-17.73645-20.756a20.72387,20.72387,0,0,1-2.02173-.88092c-.16778-.1-.33282-.20172-.49743-.309q-.62128-.458-1.19635-.97345l.01379.01324q-.07929-.07242-.15948-.14612l.02844.027-.056-.0523.02521.023-.07209-.06684c-.31036-.293-.60168-.60419-.88128-.92267-.1662-.21-.32471-.42071-.47736-.64117A21.75432,21.75432,0,0,1,38.117,51.40755c-.16754-.37725-.32013-.7561-.45416-1.14727-.12353-.44611-.218-.89325-.30151-1.35169.009.05542.01812.10755.02691.163-.17974-1.05524-.37274-2.124-.46966-3.1955.18353.03125.36767.05939.54962.1-.03137-.00721-.06329-.01477-.09528-.02375l.12452.03028.00616.0014c.60968.14825,1.22217.29437,1.82819.4458.368.09345.73687.1767,1.10022.28687.34088.10479.67639.23407,1.012.36151l-.047-.01862c.62653.23956,1.25812.47852,1.86035.77466a19.54425,19.54425,0,0,1,1.71784,1.09534l-.01874-.012c.43585.31159.8714.62647,1.27728.97718a14.51041,14.51041,0,0,1,1.13935,1.199c.3269.39581.6524.79035.94561,1.212.091.15075.17353.30591.25171.46429a19.00007,19.00007,0,0,1,.67859,1.8227c.09412.31134.17487.62463.23975.94415.06207.41418.08832.83282.10907,1.2514-1.10217-1.225-2.31928-2.37683-3.35187-3.64477.02252.02667.04535.05279.068.07733-.04052-.04822-.08258-.09662-.124-.145l.03717.04175c-.57635-1.73676-3.37732-2.5965-2.89526-.02954l-.00611-.0127c.0138.02612.02118.0564.03748.08136-.007-.01654-.01465-.033-.0224-.04962A6.89651,6.89651,0,0,0,44.583,54.92446l-.02143-.026.26642.31708-.004-.00452c.8504,1.0893,1.85638,2.03412,2.80133,3.03742-.48951-.075-.97889-.15235-1.46033-.25531C45.61917,57.85061,45.08524,57.65932,44.55441,57.46316Zm11.57807-9.09c.21972-.23291.4422-.46289.68164-.67511a21.45338,21.45338,0,0,1,2.07879-1.44177c.29718-.17865.59882-.34418.91132-.4939.44794-.1958.90552-.36865,1.36926-.51874a22.24911,22.24911,0,0,1,2.60651-.522,12.48946,12.48946,0,0,1,1.37988-.14587q.48843-.01575.97766-.00995c-.36273.97455-.74786,1.93963-1.20422,2.87561a9.47471,9.47471,0,0,1-.57642.9411,27.656,27.656,0,0,1-2.17663,2.70508,29.58492,29.58492,0,0,1-2.22754,2.22687,21.41419,21.41419,0,0,1-1.99817,1.40368l.00445-.003a15.04171,15.04171,0,0,1-1.49633.83374c-.64344.27539-1.30066.53021-1.96961.74133-.16052.046-.32464.0821-.48742.1222.443-.44245.90246-.86853,1.35736-1.29828q.949-.89228,1.88848-1.78882c.49994-.47986,1.00977-.95886,1.47828-1.47217a1.19394,1.19394,0,0,0-1.751-1.61529c-.18469.15838-.35071.339-.52606.50836-.31372.3045-.63043.60528-.947.90613-.637.60131-1.27723,1.20239-1.91388,1.80371-.28308.26709-.56409.538-.84656.80688.19324-.51459.412-1.01916.60828-1.53461a14.7972,14.7972,0,0,1,.68164-1.53009c.19244-.36187.38275-.72284.61029-1.06482A20.4026,20.4026,0,0,1,56.13248,48.37313Zm-.049.05188.04321-.04614.00378-.00379Zm13.95886,29.7171q-1.95557.022-3.91053.03888c.19782-.49988.397-.99908.61207-1.493-.021.04608-.04578.09528-.06727.14472.40418-.91553.83167-1.82233,1.23261-2.74152l-.06409.14831c.13159-.297.2605-.5946.38928-.8919.03882-.09491.08057-.18628.12244-.27765-.01019.0202-.01983.04-.029.05957.133-.29407.27216-.58789.39459-.88611a2.50006,2.50006,0,0,0,.20655-.68652c.00262-.023-.00416-.04352-.00293-.06623a1.13122,1.13122,0,0,0,.04119-.2854,1.22613,1.22613,0,0,0-1.12512-1.14386c-.16632-.0144-.33777-.00866-.50525-.00952l.09528.002-.041-.00049c-.62463-.00965-1.24719-.04511-1.86914-.04938-2.31988-.02331-4.63708.0426-6.95379.06409-1.72687.01336-3.45441.03473-5.18146.04968.5741-2.01385-.24493-7.11053-.90186-8.38678l.00159.00555a8.369,8.369,0,0,0-.56494-1.58935.85379.85379,0,0,0,.01416-.631c.01447-.09668.02936-.19336.04059-.28852a16.12079,16.12079,0,0,0,1.74164-.24,14.22418,14.22418,0,0,0,1.58874-.37872c.49591-.15863.98725-.34521,1.47235-.53571a18.94822,18.94822,0,0,0,5.61371-3.69879c.83936-.8471,1.673-1.70837,2.44605-2.61932.36608-.43677.71313-.88879,1.05035-1.34851a15.44729,15.44729,0,0,0,1.04157-1.56134,23.20729,23.20729,0,0,0,1.38037-3.18353,13.76373,13.76373,0,0,0,.47326-1.3985,1.31489,1.31489,0,0,0-.09607-.98285c-.01165-.019-.02679-.03351-.03894-.05188a1.24272,1.24272,0,0,0-.98858-1.0025,8.33816,8.33816,0,0,0-1.5932-.121,14.83979,14.83979,0,0,0-2.50354.1626c-.54059.08307-1.08258.18317-1.62128.28351a11.335,11.335,0,0,0-1.47943.34021,12.14976,12.14976,0,0,0-2.68329,1.17291q-.7261.45-1.4317.93585a10.95432,10.95432,0,0,0-1.41937,1.1081c-.40754.40234-.78638.8277-1.16205,1.25671a15.96477,15.96477,0,0,0-1.07624,1.33264,11.679,11.679,0,0,0-.86956,1.51123c-.2558.50434-.4784,1.022-.68464,1.54779-.056.14075-.11.282-.167.42237-.06738-.16059-.1239-.32727-.19787-.48364a8.16769,8.16769,0,0,0-.97272-1.52039c-.32355-.411-.65082-.81555-.99976-1.20819a14.2301,14.2301,0,0,0-2.7254-2.28784c-.44916-.30225-.89783-.60785-1.36292-.884a10.81134,10.81134,0,0,0-1.58551-.72222c-.559-.21936-1.11743-.44208-1.68115-.64484a14.27939,14.27939,0,0,0-1.62164-.42432c.05035.01111.104.02265.15777.03412-.75769-.17511-1.50561-.38342-2.26959-.5249-.46679-.08765-.93243-.1872-1.40613-.2334-.07556-.007-.15106-.01526-.227-.01758A1.22168,1.22168,0,0,0,34.959,43.948a1.16084,1.16084,0,0,0-.37268.44592,1.93517,1.93517,0,0,0-.14624.73963,10.04322,10.04322,0,0,0,.14423,1.72894c.18017,1.23633.34833,2.49213.64972,3.70825a14.69671,14.69671,0,0,0,1.43982,3.35272,10.30034,10.30034,0,0,0,.98571,1.566,12.66034,12.66034,0,0,0,1.259,1.37421,15.10281,15.10281,0,0,0,1.38769,1.19055,11.73718,11.73718,0,0,0,1.71021,1.0202c.54455.266,1.11334.48969,1.67633.69916a17.05238,17.05238,0,0,0,1.70209.56122,25.46047,25.46047,0,0,0,3.37841.55267c.26563.02942.53052.05854.7956.08228a12.16433,12.16433,0,0,1,.51971,1.33014,28.84116,28.84116,0,0,1,.80963,3.48687,21.18833,21.18833,0,0,1,.25989,4.02082c.09638.12005.18732.22363.27692.32324-.15784.00031-.31592.00317-.4737.00311l.15357.00305c-.06549-.0017-.12982-.00213-.19428-.00207l.01654.00037c-.03314.00012-.06591-.00007-.09887-.00013l-.05829.00019.01513-.00049c-.10516-.00067-.20977-.00183-.316-.00165l.01984-.00037-.04431-.0003c.02362-.00012.04694-.00037.07-.00031l.00964-.00006c-1.83667-.02282-3.67023-.07934-5.50812-.08856l.157.00336c-.073-.00141-.14771-.003-.22187-.00324l.02515-.0003q-.16983-.00092-.33966-.00183l.06018.00122c-.06891-.00122-.13812-.00147-.20728-.00153l.03846-.00036-.041-.00013.01648-.00055c-.2392-.00079-.47626-.0014-.71478-.00213l-.0083-.00055h-.00141a1.19379,1.19379,0,0,0-.15728-.00195l-.018.00134c-.19653-.001-.39191-.00275-.5871-.003.0354-.00031.07074-.00122.106-.00055q-2.25558-.01593-4.5105-.0763c-.6961-.01587-1.395-.03881-2.08978-.07165-.15265-.00751-.31634-.01825-.4801-.025a.93933.93933,0,0,0-.15656-.09771,1.2165,1.2165,0,0,0-1.639.76074,2.14874,2.14874,0,0,0,.12213,1.156c.11358.4646.2276.92585.33777,1.39026.19848.82752.39025,1.65113.58868,2.4787.169.69513.33081,1.393.47858,2.09314.079.38233.14959.76959.24646,1.14783-1.47968.00445-2.95948.00964-4.43994.03491-2.63019.04566-5.26136.10486-7.89423.06482-.166-.00238-.33258-.002-.49872-.00433.00971-1.97632-.0296-3.95459.0036-5.93244.02185-1.23938.00623-2.47851.001-3.72021-.00495-1.24512.00024-2.48932-.039-3.73389.00207.05487.00445.10639.00665.16126-.01331-.476-.0271-.9491-.04346-1.42218.00043.0224.00067.04516.00012.06781-.00323-.17365-.00921-.34485-.01336-.51551l.00055.04053c-.04261-1.52826-.05561-3.06036-.10242-4.58887-.00018.0174-.00024.0351.00012.05292-.00647-.194-.013-.38641-.01935-.58118l.007.1579c-.024-.78857-.05487-1.57776-.082-2.36987l.00189.04388.00019.0055.00457.11187c-.0025-.08911-.00512-.17834-.008-.264.0014.02826.00165.05743.00177.08654-.00372-.17089-.00995-.34008-.01624-.51177.00214.05487.00464.10638.007.15783-.03412-1.50067-.06146-3.00073-.10571-4.5022l-.00037.03339c-.00512-.17126-.01178-.34314-.0158-.51691.002.05487.00439.10639.00677.1579-.04449-1.53216-.1087-3.0628-.1604-4.59546.00024.01789.00031.03583,0,.0542l-.00189-.11206-.00165-.04553.00128.02863c-.00348-.19574-.00891-.39039-.0144-.5871l-.00025.017c-.01629-.64283-.02362-1.29016-.025-1.93409-.00226-.60534.02405-3.84173-.06043-4.444-.00354-.026-.01855-.047-.02356-.07251,2.49152-1.673,4.97626-3.35621,7.48151-5.0094l-.0531.03338c.04028-.02582.08026-.05188.12036-.07776l.01019-.00677-.00457.00305c.41742-.26935.83282-.54352,1.24768-.81512l-.02033.01281q.19511-.12715.39014-.25427c-.04346.027-.0871.0575-.13055.08441.06524-.04223.13427-.08752.19946-.12976l-.00708.00446c.18707-.12122.37359-.2428.5581-.367-.04364.03046-.087.05738-.13061.08789.13031-.08453.26068-.16894.38788-.25372l-.00354.00226q.44613-.2893.88781-.57868l-.02508.01557q.89263-.58182,1.78-1.16968c3.97625-2.62207,7.94366-5.25824,11.93475-7.86273.96521-.6261,1.94745-1.221,2.90357-1.86182a.97666.97666,0,0,0,.12683-.13757c.23065.16638.45349.34344.692.49847.88349.58033,1.79676,1.12043,2.69635,1.67475-.02887-.01789-.05725-.03571-.08423-.05341,1.814,1.125,3.60334,2.29553,5.3935,3.45941q2.67518,1.73978,5.32654,3.522C68.312,33.2286,72.295,36.234,76.40738,39.049c.49133.33728.9798.67456,1.47125,1.00849l-.00738.00366a1.31582,1.31582,0,0,0-.50415,1.2796c.02606.34485.0426.68884.053,1.03241l-.00048-.03485.00134.06561.00024.00837-.00024-.00831c.01825.83753.01318,1.67316-.00458,2.51087-.04712,2.43732-.20337,4.87213-.264,7.30835-.065,2.487-.05139,4.97412-.09625,7.463-.04633,2.62549-.144,5.25336-.21405,7.87677-.06354,2.42914-.07178,4.85272-.00507,7.27942.00013-.00672.00019-.01355.00013-.02026.00061.0343.0014.06848.00293.10266-.00116-.0282-.00141-.05762-.00177-.08667.004.17089.01019.34015.01623.5119-.00207-.05493-.00439-.10633-.00647-.16126.02661.95905.06238,1.91913.11279,2.877C74.65243,78.07742,72.34647,78.11538,70.04233,78.14211Z"></path>
  <polygon points="22.919 56.556 22.919 56.55 22.919 56.55 22.919 56.556"></polygon>
</svg>
